<svg version="1.1" id="Layer_1" xmlns="http://www.w3.org/2000/svg" xmlns:xlink="http://www.w3.org/1999/xlink" x="0px" y="0px"
	 width="100%" viewBox="0 0 626 626" enable-background="new 0 0 626 626" xml:space="preserve">
<path fill="#FEFEFE" opacity="1.000000" stroke="none" 
	d="
M340.000000,627.000000 
	C226.666687,627.000000 113.833374,627.000000 1.000045,627.000000 
	C1.000030,418.333405 1.000030,209.666779 1.000015,1.000129 
	C209.666565,1.000086 418.333130,1.000086 626.999756,1.000043 
	C626.999878,209.666550 626.999878,418.333099 626.999939,626.999817 
	C531.500000,627.000000 436.000000,627.000000 340.000000,627.000000 
M504.025208,463.974884 
	C504.025208,463.974884 504.100739,463.962097 503.960815,463.428802 
	C503.661407,463.237915 503.362030,463.046997 503.051971,462.948334 
	C503.051971,462.948334 503.144073,462.936401 502.984009,462.406036 
	C502.676544,462.221985 502.369080,462.037933 502.051971,461.947510 
	C502.051971,461.947510 502.145203,461.934448 501.961731,461.420166 
	C501.652405,461.246094 501.343109,461.072021 501.025208,460.973846 
	C501.025208,460.973846 501.101013,460.964600 500.934082,460.438324 
	C500.627106,460.255005 500.320129,460.071686 499.844513,459.450500 
	C499.653839,459.170288 499.389221,459.021515 498.820129,458.449890 
	C498.315155,458.156342 497.810211,457.862762 497.232513,457.700317 
	C497.232513,457.700317 497.377014,457.660309 497.189789,457.145294 
	C496.875977,456.979431 496.562134,456.813568 496.267914,456.784943 
	C496.267914,456.784943 496.338470,456.665619 496.096436,456.112091 
	C495.425720,455.695801 494.755005,455.279510 494.031403,454.958954 
	C494.031403,454.958954 494.127991,454.907593 493.885101,454.368927 
	C493.382751,454.085815 492.880371,453.802704 492.111633,453.627411 
	C492.111633,453.627411 492.394806,453.578491 492.178680,453.096405 
	C491.864655,452.950623 491.550629,452.804840 491.213470,452.812897 
	C491.213470,452.812897 491.315277,452.695221 491.060822,452.149719 
	C490.372894,451.761658 489.684967,451.373627 488.998932,451.004333 
	C488.998932,451.004333 489.017609,451.000427 488.730042,450.442261 
	C487.824402,449.957031 486.918793,449.471771 486.000000,449.000000 
	C486.000000,449.000000 486.012543,448.986084 485.656250,448.433319 
	C484.489899,447.855347 483.323578,447.277405 482.121826,446.836304 
	C482.121826,446.836304 482.260681,446.809723 482.023956,446.315857 
	C481.687805,446.196136 481.351624,446.076416 480.676270,445.482239 
	C480.137085,445.287567 479.597900,445.092896 478.659058,444.355652 
	C468.445923,439.874786 458.232788,435.393890 447.528778,430.415405 
	C429.774292,422.832275 412.033417,415.216949 394.253143,407.694733 
	C390.924438,406.286469 387.437958,405.251038 383.635010,403.460754 
	C377.760162,400.643036 371.885315,397.825317 366.009247,394.069275 
	C366.014709,382.714813 366.020172,371.360382 366.090271,359.069946 
	C365.991852,352.973114 365.893433,346.876282 366.153534,340.220123 
	C379.254242,327.991180 391.022705,314.522980 398.024353,297.952850 
	C403.345184,285.360504 406.693298,271.934570 411.680237,258.811340 
	C412.640778,258.544861 413.596771,258.260620 414.562500,258.014496 
	C434.091248,253.037567 443.393494,232.278595 434.232117,214.370224 
	C430.627960,207.324951 424.665558,203.128525 417.894287,198.992249 
	C418.961090,191.749573 419.886749,184.482712 421.122803,177.269028 
	C424.112518,159.821136 428.195770,142.679779 437.485748,127.325279 
	C439.238342,124.428581 439.450378,122.060570 438.400818,118.971725 
	C426.546295,84.084236 401.407776,62.794052 367.588837,51.233665 
	C356.457520,47.428627 344.326965,46.546673 331.783264,44.162724 
	C335.837494,37.579082 340.200287,30.494396 344.542419,23.443233 
	C305.716431,10.048869 262.012390,28.925962 243.697021,67.110794 
	C242.596985,69.404190 241.861496,71.180832 238.459305,71.123840 
	C217.746078,70.776810 203.864120,80.293182 196.309372,99.670204 
	C190.480347,114.620918 189.669647,130.126526 191.537109,145.878708 
	C193.734985,164.417755 200.068588,181.725677 206.945068,199.322754 
	C204.589203,200.502304 202.106491,201.483582 199.899353,202.895615 
	C190.135788,209.142014 184.615051,223.482269 187.672302,234.302307 
	C191.793076,248.886292 202.185715,257.589264 216.228546,258.690704 
	C221.739563,283.183319 231.108475,305.891937 247.569962,325.185181 
	C252.194611,330.605347 257.432861,335.502014 262.062347,341.586487 
	C262.038208,348.058380 262.014069,354.530273 261.919983,361.937225 
	C261.919403,372.955963 261.918854,383.974731 261.297577,395.290283 
	C254.869141,398.184662 248.440704,401.079071 241.403732,404.338013 
	C215.329910,415.699860 189.469986,427.457642 162.596069,437.028900 
	C123.384789,450.994080 98.546227,487.155365 98.079987,528.696472 
	C97.827621,551.181885 98.076439,573.673035 98.116165,596.161560 
	C98.118149,597.285583 98.282295,598.409363 98.378685,599.631470 
	C99.261925,599.831299 99.886765,600.097168 100.511055,600.095886 
	C122.659027,600.049927 144.806946,599.978882 167.870575,600.097351 
	C171.581360,600.023071 175.292160,599.948730 179.917313,600.095947 
	C268.777161,600.115906 357.636993,600.136536 446.496857,600.144958 
	C447.320343,600.145020 448.143860,599.981384 449.881073,600.078979 
	C453.582825,600.033386 457.284546,599.987793 461.706207,600.153992 
	C484.456329,600.153992 507.206482,600.153992 529.937988,600.153992 
	C530.165649,599.336121 530.407349,598.871216 530.408447,598.405762 
	C530.464111,574.455688 530.718384,550.503113 530.449951,526.556396 
	C530.301880,513.350586 527.891602,500.496765 521.144165,488.905212 
	C521.144165,488.905212 521.254639,488.892365 521.216003,488.268036 
	C520.887329,487.768311 520.558655,487.268585 520.200684,486.876221 
	C520.200684,486.876221 520.304382,486.835907 520.219604,486.151703 
	C519.300659,484.650024 518.381714,483.148346 517.142151,481.594147 
	C517.142151,481.594147 517.468689,481.622803 517.322388,480.942108 
	C513.233582,475.598053 509.144836,470.253998 505.018005,464.980774 
	C505.018005,464.980774 505.096375,464.962769 504.949677,464.435059 
	C504.645569,464.256439 504.341431,464.077850 504.025208,463.974884 
z"/>
<path fill="#CD463A" opacity="1.000000" stroke="none" 
	d="
M166.954880,599.911377 
	C144.806946,599.978882 122.659027,600.049927 100.511055,600.095886 
	C99.886765,600.097168 99.261925,599.831299 98.378685,599.631470 
	C98.282295,598.409363 98.118149,597.285583 98.116165,596.161560 
	C98.076439,573.673035 97.827621,551.181885 98.079987,528.696472 
	C98.546227,487.155365 123.384789,450.994080 162.596069,437.028900 
	C189.469986,427.457642 215.329910,415.699860 242.046280,404.228638 
	C243.234924,404.451355 243.927658,404.664856 244.305893,405.132629 
	C256.727631,420.496124 269.198395,435.821503 281.439880,451.327850 
	C283.565094,454.019897 285.222687,454.520905 287.955231,452.607483 
	C295.955353,447.005432 304.015991,441.489746 312.404419,435.993683 
	C313.465149,436.052002 314.174438,436.056885 315.078583,436.342590 
	C325.041931,443.366516 334.810364,450.109589 344.942017,457.103363 
	C349.953186,450.389526 354.244019,444.714600 358.456238,438.981934 
	C367.001404,427.352356 375.504089,415.691498 384.024292,404.043549 
	C387.437958,405.251038 390.924438,406.286469 394.253143,407.694733 
	C412.033417,415.216949 429.774292,422.832275 447.914673,430.991699 
	C454.670074,434.465637 461.011444,437.427429 467.419617,440.236877 
	C471.245178,441.914124 475.175476,443.352478 479.058716,444.898193 
	C479.597900,445.092896 480.137085,445.287567 480.971832,445.961731 
	C481.598480,446.564056 481.929596,446.686890 482.260681,446.809723 
	C482.260681,446.809723 482.121826,446.836304 482.211975,447.124451 
	C483.538940,447.937103 484.775757,448.461578 486.012543,448.986084 
	C486.012543,448.986084 486.000000,449.000000 486.053711,449.340729 
	C487.077515,450.121094 488.047577,450.560760 489.017609,451.000427 
	C489.017609,451.000427 488.998932,451.004333 489.046997,451.339844 
	C489.835144,452.015289 490.575195,452.355255 491.315277,452.695221 
	C491.315277,452.695221 491.213470,452.812897 491.269867,453.036621 
	C491.682434,453.366394 492.038635,453.472443 492.394806,453.578491 
	C492.394806,453.578491 492.111633,453.627411 492.244812,453.915436 
	C492.961334,454.438171 493.544678,454.672882 494.127991,454.907593 
	C494.127991,454.907593 494.031403,454.958954 494.073669,455.270813 
	C494.856781,455.943695 495.597626,456.304657 496.338470,456.665619 
	C496.338470,456.665619 496.267914,456.784943 496.293335,457.020569 
	C496.671509,457.390900 497.024261,457.525604 497.377014,457.660309 
	C497.377014,457.660309 497.232513,457.700317 497.289978,457.967834 
	C497.915222,458.491608 498.482971,458.747894 499.050720,459.004181 
	C499.389221,459.021515 499.653839,459.170288 500.026764,459.922241 
	C500.506348,460.584167 500.803680,460.774384 501.101013,460.964600 
	C501.101013,460.964600 501.025208,460.973846 501.127563,461.189209 
	C501.534973,461.581207 501.840088,461.757843 502.145203,461.934448 
	C502.145203,461.934448 502.051971,461.947510 502.142731,462.162231 
	C502.537018,462.563477 502.840546,462.749939 503.144073,462.936401 
	C503.144073,462.936401 503.051971,462.948334 503.138153,463.161316 
	C503.516479,463.570221 503.808594,463.766174 504.100739,463.962097 
	C504.100739,463.962097 504.025208,463.974884 504.123169,464.187378 
	C504.512909,464.587494 504.804626,464.775146 505.096375,464.962769 
	C505.096375,464.962769 505.018005,464.980774 505.021179,465.317505 
	C507.266479,468.851013 509.407867,472.125122 511.784271,475.218689 
	C513.518738,477.476532 515.562683,479.496704 517.468689,481.622803 
	C517.468689,481.622803 517.142151,481.594147 517.175232,481.980713 
	C518.240295,483.856842 519.272339,485.346375 520.304382,486.835907 
	C520.304382,486.835907 520.200684,486.876221 520.160889,487.158417 
	C520.498901,487.924530 520.876770,488.408447 521.254639,488.892365 
	C521.254639,488.892365 521.144165,488.905212 521.106262,489.250000 
	C521.369202,490.701996 521.531555,491.870789 521.992249,492.906921 
	C526.484253,503.008881 528.753052,513.684998 528.899597,524.628845 
	C529.207336,547.619202 528.917480,570.617126 529.070862,593.610535 
	C529.098694,597.781372 527.674927,599.098267 523.558960,599.063721 
	C502.732208,598.888611 481.903412,598.952332 461.052887,598.468445 
	C461.019806,574.907532 461.064697,551.810059 460.903961,528.714050 
	C460.889496,526.638245 460.082733,523.985596 458.656372,522.678467 
	C457.421265,521.546509 453.858551,520.992615 452.956970,521.866760 
	C451.074768,523.691589 449.217804,526.614929 449.186737,529.109863 
	C448.893188,552.701904 448.985901,576.298706 448.967346,599.894165 
	C448.143860,599.981384 447.320343,600.145020 446.496857,600.144958 
	C357.636993,600.136536 268.777161,600.115906 179.280914,599.615356 
	C178.440536,597.174255 178.063080,595.213989 178.059311,593.253052 
	C178.019226,572.454712 178.039627,551.656250 178.039124,530.857788 
	C178.039093,529.527161 178.506363,527.852295 177.879837,526.938354 
	C176.612259,525.089233 174.936752,522.746338 173.057495,522.343872 
	C171.650253,522.042542 169.019745,524.104004 168.100296,525.760742 
	C167.057953,527.638916 167.057755,530.237976 167.049164,532.525269 
	C166.964706,554.987122 166.972946,577.449280 166.954880,599.911377 
z"/>
<path fill="#4E2124" opacity="1.000000" stroke="none" 
	d="
M207.411224,198.725189 
	C200.068588,181.725677 193.734985,164.417755 191.537109,145.878708 
	C189.669647,130.126526 190.480347,114.620918 196.309372,99.670204 
	C203.864120,80.293182 217.746078,70.776810 238.459305,71.123840 
	C241.861496,71.180832 242.596985,69.404190 243.697021,67.110794 
	C262.012390,28.925962 305.716431,10.048869 344.542419,23.443233 
	C340.200287,30.494396 335.837494,37.579082 331.783264,44.162724 
	C344.326965,46.546673 356.457520,47.428627 367.588837,51.233665 
	C401.407776,62.794052 426.546295,84.084236 438.400818,118.971725 
	C439.450378,122.060570 439.238342,124.428581 437.485748,127.325279 
	C428.195770,142.679779 424.112518,159.821136 421.122803,177.269028 
	C419.886749,184.482712 418.961090,191.749573 417.455536,199.531540 
	C415.034821,200.077469 413.052887,200.084091 410.614960,200.055542 
	C406.857086,200.001419 403.555206,199.982498 400.188324,199.500580 
	C400.108734,185.871918 399.568848,172.678467 400.262756,159.550262 
	C400.731293,150.685959 397.370758,144.044983 391.613007,138.135529 
	C388.719452,135.165787 385.600220,132.331329 382.235626,129.920624 
	C370.984375,121.859268 358.205475,117.144714 345.011627,113.354927 
	C341.306091,112.290550 338.833099,112.845612 335.998688,115.909134 
	C310.349365,143.631424 273.267670,145.514526 244.983810,120.791618 
	C244.019196,119.948463 242.969467,119.202713 241.760788,118.255974 
	C231.132416,130.194748 224.602631,143.367050 224.837021,159.471268 
	C225.028549,172.630768 224.849991,185.795654 224.388184,198.969360 
	C220.919785,199.025864 217.898682,199.071182 214.454773,199.094162 
	C211.825058,198.956284 209.618134,198.840729 207.411224,198.725189 
z"/>
<path fill="#94342E" opacity="1.000000" stroke="none" 
	d="
M400.253296,199.963562 
	C403.555206,199.982498 406.857086,200.001419 410.568420,200.514664 
	C410.958282,220.299179 410.938721,239.589355 410.919159,258.879547 
	C406.693298,271.934570 403.345184,285.360504 398.024353,297.952850 
	C391.022705,314.522980 379.254242,327.991180 365.641907,340.581177 
	C364.065552,341.731628 362.999420,342.519196 361.936310,343.310791 
	C334.758606,363.547211 302.474335,365.719971 275.241302,349.072815 
	C270.871674,346.401733 266.669312,343.457031 262.389648,340.638794 
	C257.432861,335.502014 252.194611,330.605347 247.569962,325.185181 
	C231.108475,305.891937 221.739563,283.183319 216.123718,257.904541 
	C215.653046,251.185898 215.045868,245.256500 214.970337,239.320328 
	C214.799866,225.920822 214.892181,212.517990 214.877594,199.116501 
	C217.898682,199.071182 220.919785,199.025864 224.464920,199.435486 
	C225.009384,207.052368 224.915237,214.216965 225.081131,221.375549 
	C225.261871,229.176102 224.636154,237.187897 226.196640,244.727890 
	C230.914719,267.524963 243.989670,283.661621 266.502594,291.714050 
	C266.854736,290.881744 267.156281,290.298065 267.354614,289.681244 
	C272.164764,274.722809 280.759216,270.008759 295.839325,273.964203 
	C307.503387,277.023651 319.415680,277.946289 330.771759,273.666901 
	C343.306946,268.943146 354.860168,277.948792 357.826447,288.052795 
	C358.189941,289.290863 358.602142,290.514648 359.057617,291.952911 
	C359.943939,291.697021 360.560883,291.563293 361.145569,291.343689 
	C384.194977,282.685272 399.702362,260.612366 400.007416,235.922348 
	C400.155487,223.936905 400.175385,211.949890 400.253296,199.963562 
M278.369751,299.914307 
	C283.596313,307.802490 291.180084,311.869690 300.280518,314.034729 
	C300.666779,303.200745 300.666779,303.200745 311.200073,303.201782 
	C311.533081,303.201813 311.866547,303.213196 312.199005,303.199371 
	C324.844971,302.673981 323.047272,304.628418 323.080963,313.175110 
	C323.082062,313.451965 323.390381,313.727600 323.810364,314.430176 
	C332.887573,312.525269 341.081970,308.853973 346.792297,301.058105 
	C351.444000,294.707520 349.892303,287.999451 343.978882,283.740875 
	C337.388977,285.844818 331.561035,288.316742 325.481995,289.520630 
	C312.328918,292.125366 299.261963,291.607758 287.016937,285.420074 
	C281.761932,282.764618 279.990387,283.058899 277.281891,288.309998 
	C275.304474,292.143738 276.071594,295.714966 278.369751,299.914307 
z"/>
<path fill="#F4C9AC" opacity="1.000000" stroke="none" 
	d="
M314.883698,436.061737 
	C314.174438,436.056885 313.465149,436.052002 312.347839,435.654053 
	C307.859711,431.581451 303.966370,427.665466 299.664185,424.267120 
	C287.170074,414.397980 274.512054,404.736450 261.918304,394.993469 
	C261.918854,383.974731 261.919403,372.955963 262.230957,361.659058 
	C263.311859,362.227783 264.019501,363.143036 264.861328,363.911194 
	C273.919830,372.176605 284.835846,376.421814 296.737335,378.391846 
	C322.578522,382.669281 346.393677,379.187378 366.025635,360.005920 
	C366.020172,371.360382 366.014709,382.714813 365.707703,394.680267 
	C354.639008,403.844330 343.836212,412.353058 333.118439,420.967529 
	C326.968933,425.910278 320.957367,431.024658 314.883698,436.061737 
z"/>
<path fill="#F3B588" opacity="1.000000" stroke="none" 
	d="
M366.057953,359.537933 
	C346.393677,379.187378 322.578522,382.669281 296.737335,378.391846 
	C284.835846,376.421814 273.919830,372.176605 264.861328,363.911194 
	C264.019501,363.143036 263.311859,362.227783 262.265930,361.191528 
	C262.014069,354.530273 262.038208,348.058380 262.226013,341.112640 
	C266.669312,343.457031 270.871674,346.401733 275.241302,349.072815 
	C302.474335,365.719971 334.758606,363.547211 361.936310,343.310791 
	C362.999420,342.519196 364.065552,341.731628 365.462646,340.860840 
	C365.893433,346.876282 365.991852,352.973114 366.057953,359.537933 
z"/>
<path fill="#CDC6C4" opacity="1.000000" stroke="none" 
	d="
M315.078583,436.342590 
	C320.957367,431.024658 326.968933,425.910278 333.118439,420.967529 
	C343.836212,412.353058 354.639008,403.844330 365.708313,395.149414 
	C371.885315,397.825317 377.760162,400.643036 383.829651,403.752136 
	C375.504089,415.691498 367.001404,427.352356 358.456238,438.981934 
	C354.244019,444.714600 349.953186,450.389526 344.942017,457.103363 
	C334.810364,450.109589 325.041931,443.366516 315.078583,436.342590 
z"/>
<path fill="#CDC6C4" opacity="1.000000" stroke="none" 
	d="
M261.607941,395.141876 
	C274.512054,404.736450 287.170074,414.397980 299.664185,424.267120 
	C303.966370,427.665466 307.859711,431.581451 311.996368,435.600616 
	C304.015991,441.489746 295.955353,447.005432 287.955231,452.607483 
	C285.222687,454.520905 283.565094,454.019897 281.439880,451.327850 
	C269.198395,435.821503 256.727631,420.496124 244.305893,405.132629 
	C243.927658,404.664856 243.234924,404.451355 242.350555,404.046387 
	C248.440704,401.079071 254.869141,398.184662 261.607941,395.141876 
z"/>
<path fill="#F2B689" opacity="1.000000" stroke="none" 
	d="
M214.454773,199.094162 
	C214.892181,212.517990 214.799866,225.920822 214.970337,239.320328 
	C215.045868,245.256500 215.653046,251.185898 215.976135,257.543518 
	C202.185715,257.589264 191.793076,248.886292 187.672302,234.302307 
	C184.615051,223.482269 190.135788,209.142014 199.899353,202.895615 
	C202.106491,201.483582 204.589203,200.502304 207.178146,199.023972 
	C209.618134,198.840729 211.825058,198.956284 214.454773,199.094162 
z"/>
<path fill="#F3B68A" opacity="1.000000" stroke="none" 
	d="
M411.299683,258.845459 
	C410.938721,239.589355 410.958282,220.299179 411.024384,200.549866 
	C413.052887,200.084091 415.034821,200.077469 417.423706,199.947037 
	C424.665558,203.128525 430.627960,207.324951 434.232117,214.370224 
	C443.393494,232.278595 434.091248,253.037567 414.562500,258.014496 
	C413.596771,258.260620 412.640778,258.544861 411.299683,258.845459 
z"/>
<path fill="#98322D" opacity="1.000000" stroke="none" 
	d="
M449.424194,599.986572 
	C448.985901,576.298706 448.893188,552.701904 449.186737,529.109863 
	C449.217804,526.614929 451.074768,523.691589 452.956970,521.866760 
	C453.858551,520.992615 457.421265,521.546509 458.656372,522.678467 
	C460.082733,523.985596 460.889496,526.638245 460.903961,528.714050 
	C461.064697,551.810059 461.019806,574.907532 461.023956,598.720764 
	C461.007080,599.605408 460.996704,599.773865 460.986298,599.942261 
	C457.284546,599.987793 453.582825,600.033386 449.424194,599.986572 
z"/>
<path fill="#97312C" opacity="1.000000" stroke="none" 
	d="
M167.412720,600.004395 
	C166.972946,577.449280 166.964706,554.987122 167.049164,532.525269 
	C167.057755,530.237976 167.057953,527.638916 168.100296,525.760742 
	C169.019745,524.104004 171.650253,522.042542 173.057495,522.343872 
	C174.936752,522.746338 176.612259,525.089233 177.879837,526.938354 
	C178.506363,527.852295 178.039093,529.527161 178.039124,530.857788 
	C178.039627,551.656250 178.019226,572.454712 178.059311,593.253052 
	C178.063080,595.213989 178.440536,597.174255 178.823730,599.504639 
	C175.292160,599.948730 171.581360,600.023071 167.412720,600.004395 
z"/>
<path fill="#B15249" opacity="1.000000" stroke="none" 
	d="
M461.346252,600.048096 
	C460.996704,599.773865 461.007080,599.605408 461.046417,599.184631 
	C481.903412,598.952332 502.732208,598.888611 523.558960,599.063721 
	C527.674927,599.098267 529.098694,597.781372 529.070862,593.610535 
	C528.917480,570.617126 529.207336,547.619202 528.899597,524.628845 
	C528.753052,513.684998 526.484253,503.008881 521.992249,492.906921 
	C521.531555,491.870789 521.369202,490.701996 521.126221,489.198120 
	C527.891602,500.496765 530.301880,513.350586 530.449951,526.556396 
	C530.718384,550.503113 530.464111,574.455688 530.408447,598.405762 
	C530.407349,598.871216 530.165649,599.336121 529.937988,600.153992 
	C507.206482,600.153992 484.456329,600.153992 461.346252,600.048096 
z"/>
<path fill="#B15249" opacity="1.000000" stroke="none" 
	d="
M478.858887,444.626923 
	C475.175476,443.352478 471.245178,441.914124 467.419617,440.236877 
	C461.011444,437.427429 454.670074,434.465637 448.160126,431.240479 
	C458.232788,435.393890 468.445923,439.874786 478.858887,444.626923 
z"/>
<path fill="#B15249" opacity="1.000000" stroke="none" 
	d="
M517.395508,481.282471 
	C515.562683,479.496704 513.518738,477.476532 511.784271,475.218689 
	C509.407867,472.125122 507.266479,468.851013 505.040222,465.282104 
	C509.144836,470.253998 513.233582,475.598053 517.395508,481.282471 
z"/>
<path fill="#B15249" opacity="1.000000" stroke="none" 
	d="
M520.261963,486.493805 
	C519.272339,485.346375 518.240295,483.856842 517.335571,482.006989 
	C518.381714,483.148346 519.300659,484.650024 520.261963,486.493805 
z"/>
<path fill="#B15249" opacity="1.000000" stroke="none" 
	d="
M485.834412,448.709686 
	C484.775757,448.461578 483.538940,447.937103 482.229675,447.056030 
	C483.323578,447.277405 484.489899,447.855347 485.834412,448.709686 
z"/>
<path fill="#B15249" opacity="1.000000" stroke="none" 
	d="
M488.873840,450.721344 
	C488.047577,450.560760 487.077515,450.121094 486.060303,449.333984 
	C486.918793,449.471771 487.824402,449.957031 488.873840,450.721344 
z"/>
<path fill="#B15249" opacity="1.000000" stroke="none" 
	d="
M496.217468,456.388855 
	C495.597626,456.304657 494.856781,455.943695 494.100128,455.222961 
	C494.755005,455.279510 495.425720,455.695801 496.217468,456.388855 
z"/>
<path fill="#B15249" opacity="1.000000" stroke="none" 
	d="
M491.188049,452.422485 
	C490.575195,452.355255 489.835144,452.015289 489.046051,451.330444 
	C489.684967,451.373627 490.372894,451.761658 491.188049,452.422485 
z"/>
<path fill="#B15249" opacity="1.000000" stroke="none" 
	d="
M498.935425,458.727051 
	C498.482971,458.747894 497.915222,458.491608 497.326355,457.902283 
	C497.810211,457.862762 498.315155,458.156342 498.935425,458.727051 
z"/>
<path fill="#B15249" opacity="1.000000" stroke="none" 
	d="
M494.006531,454.638245 
	C493.544678,454.672882 492.961334,454.438171 492.378021,453.861542 
	C492.880371,453.802704 493.382751,454.085815 494.006531,454.638245 
z"/>
<path fill="#B15249" opacity="1.000000" stroke="none" 
	d="
M521.235352,488.580200 
	C520.876770,488.408447 520.498901,487.924530 520.175537,487.104736 
	C520.558655,487.268585 520.887329,487.768311 521.235352,488.580200 
z"/>
<path fill="#B15249" opacity="1.000000" stroke="none" 
	d="
M497.283386,457.402802 
	C497.024261,457.525604 496.671509,457.390900 496.283539,456.951965 
	C496.562134,456.813568 496.875977,456.979431 497.283386,457.402802 
z"/>
<path fill="#B15249" opacity="1.000000" stroke="none" 
	d="
M501.017548,460.701477 
	C500.803680,460.774384 500.506348,460.584167 500.111084,460.141144 
	C500.320129,460.071686 500.627106,460.255005 501.017548,460.701477 
z"/>
<path fill="#B15249" opacity="1.000000" stroke="none" 
	d="
M502.053467,461.677307 
	C501.840088,461.757843 501.534973,461.581207 501.131836,461.151276 
	C501.343109,461.072021 501.652405,461.246094 502.053467,461.677307 
z"/>
<path fill="#B15249" opacity="1.000000" stroke="none" 
	d="
M503.064026,462.671204 
	C502.840546,462.749939 502.537018,462.563477 502.147552,462.115417 
	C502.369080,462.037933 502.676544,462.221985 503.064026,462.671204 
z"/>
<path fill="#B15249" opacity="1.000000" stroke="none" 
	d="
M504.030762,463.695435 
	C503.808594,463.766174 503.516479,463.570221 503.143494,463.115204 
	C503.362030,463.046997 503.661407,463.237915 504.030762,463.695435 
z"/>
<path fill="#B15249" opacity="1.000000" stroke="none" 
	d="
M505.023010,464.698914 
	C504.804626,464.775146 504.512909,464.587494 504.129242,464.149567 
	C504.341431,464.077850 504.645569,464.256439 505.023010,464.698914 
z"/>
<path fill="#B15249" opacity="1.000000" stroke="none" 
	d="
M492.286743,453.337463 
	C492.038635,453.472443 491.682434,453.366394 491.281433,452.959686 
	C491.550629,452.804840 491.864655,452.950623 492.286743,453.337463 
z"/>
<path fill="#B15249" opacity="1.000000" stroke="none" 
	d="
M482.142334,446.562805 
	C481.929596,446.686890 481.598480,446.564056 481.141418,446.198975 
	C481.351624,446.076416 481.687805,446.196136 482.142334,446.562805 
z"/>
<path fill="#F5C8AC" opacity="1.000000" stroke="none" 
	d="
M400.188324,199.500580 
	C400.175385,211.949890 400.155487,223.936905 400.007416,235.922348 
	C399.702362,260.612366 384.194977,282.685272 361.145569,291.343689 
	C360.560883,291.563293 359.943939,291.697021 359.057617,291.952911 
	C358.602142,290.514648 358.189941,289.290863 357.826447,288.052795 
	C354.860168,277.948792 343.306946,268.943146 330.771759,273.666901 
	C319.415680,277.946289 307.503387,277.023651 295.839325,273.964203 
	C280.759216,270.008759 272.164764,274.722809 267.354614,289.681244 
	C267.156281,290.298065 266.854736,290.881744 266.502594,291.714050 
	C243.989670,283.661621 230.914719,267.524963 226.196640,244.727890 
	C224.636154,237.187897 225.261871,229.176102 225.081131,221.375549 
	C224.915237,214.216965 225.009384,207.052368 224.912231,199.424286 
	C224.849991,185.795654 225.028549,172.630768 224.837021,159.471268 
	C224.602631,143.367050 231.132416,130.194748 241.760788,118.255974 
	C242.969467,119.202713 244.019196,119.948463 244.983810,120.791618 
	C273.267670,145.514526 310.349365,143.631424 335.998688,115.909134 
	C338.833099,112.845612 341.306091,112.290550 345.011627,113.354927 
	C358.205475,117.144714 370.984375,121.859268 382.235626,129.920624 
	C385.600220,132.331329 388.719452,135.165787 391.613007,138.135529 
	C397.370758,144.044983 400.731293,150.685959 400.262756,159.550262 
	C399.568848,172.678467 400.108734,185.871918 400.188324,199.500580 
M380.568420,258.260986 
	C385.543915,257.023346 389.598572,253.953751 389.486359,248.934387 
	C389.419952,245.964188 386.592316,242.064636 383.886444,240.339584 
	C377.113464,236.021622 369.261749,235.867996 361.813477,238.407928 
	C357.978668,239.715591 353.675354,241.528275 352.952545,246.803909 
	C352.155365,252.622238 355.201599,255.724380 359.968079,258.025604 
	C366.546173,261.201477 373.153473,260.534302 380.568420,258.260986 
M247.236053,258.589508 
	C254.940674,261.012726 262.720459,261.164703 269.847260,257.313232 
	C272.504272,255.877335 274.642731,252.515533 275.820099,249.555588 
	C277.257416,245.942215 274.594513,243.006027 271.592529,241.453659 
	C263.578186,237.309357 255.292282,235.299393 246.529831,239.691177 
	C242.605133,241.658279 239.229309,244.109634 239.106705,248.734772 
	C238.977188,253.621490 242.291245,256.437561 247.236053,258.589508 
M243.235352,193.948624 
	C243.666504,193.891434 244.358185,193.984833 244.490891,193.755173 
	C248.385574,187.015976 254.875305,185.264069 261.915131,184.896683 
	C267.562653,184.601929 273.236298,184.608383 278.892517,184.737686 
	C284.133026,184.857468 282.919312,180.818542 283.313263,178.038666 
	C283.745117,174.991165 282.655670,172.938675 278.921387,173.104919 
	C273.934021,173.326965 268.903778,172.892105 263.942627,173.323120 
	C257.027679,173.923889 250.632919,176.193314 245.353561,180.978226 
	C241.469193,184.498795 243.838913,189.148605 243.235352,193.948624 
M363.644592,173.760880 
	C358.324921,173.579773 353.001282,173.226028 347.688568,173.348221 
	C346.477020,173.376068 344.599426,174.828812 344.233521,176.001694 
	C342.618652,181.177979 345.250488,184.470856 350.642334,184.523956 
	C353.975311,184.556793 357.308380,184.580719 360.641357,184.612045 
	C368.702454,184.687836 376.576324,185.275269 381.907196,193.183350 
	C383.536926,183.159851 382.333008,180.564102 374.003876,176.807373 
	C371.005310,175.454910 367.676697,174.834137 363.644592,173.760880 
M262.178925,225.320358 
	C267.757416,229.278091 272.467133,228.076904 275.332611,221.949860 
	C277.685059,216.919891 277.623871,211.741669 274.670929,207.204956 
	C273.225067,204.983612 270.097595,202.441208 267.840363,202.539932 
	C265.304382,202.650848 261.976379,205.042847 260.606476,207.385864 
	C257.255951,213.116425 257.960358,219.166824 262.178925,225.320358 
M367.741638,222.075058 
	C370.169373,216.887207 369.945862,211.740494 367.228912,206.772629 
	C363.982025,200.835876 357.435791,200.536179 353.574280,206.141769 
	C350.516724,210.580261 349.881958,215.707443 352.164429,220.357285 
	C353.610535,223.303284 356.604919,226.613907 359.510559,227.341095 
	C361.603149,227.864822 364.694611,224.397385 367.741638,222.075058 
M308.409973,250.924713 
	C309.372314,248.101059 310.540985,245.324707 311.204010,242.432434 
	C311.504883,241.119995 310.803497,239.577774 310.556763,238.139771 
	C309.376251,239.019516 307.584930,239.654922 307.118744,240.820374 
	C304.843323,246.509033 302.652039,252.266678 301.064392,258.170258 
	C300.667084,259.647766 302.270721,262.998108 303.545746,263.350739 
	C308.129028,264.618408 312.951416,265.132507 317.716919,265.541809 
	C318.733337,265.629059 319.890320,264.079376 320.982544,263.283844 
	C319.915649,262.546600 318.927612,261.357025 317.767456,261.154816 
	C313.917419,260.483704 310.005432,260.167938 305.291565,259.619873 
	C306.375244,256.513031 307.224182,254.079056 308.409973,250.924713 
z"/>
<path fill="#F4C7AB" opacity="1.000000" stroke="none" 
	d="
M278.196136,299.578796 
	C276.071594,295.714966 275.304474,292.143738 277.281891,288.309998 
	C279.990387,283.058899 281.761932,282.764618 287.016937,285.420074 
	C299.261963,291.607758 312.328918,292.125366 325.481995,289.520630 
	C331.561035,288.316742 337.388977,285.844818 343.978882,283.740875 
	C349.892303,287.999451 351.444000,294.707520 346.792297,301.058105 
	C341.081970,308.853973 332.887573,312.525269 323.810364,314.430176 
	C323.390381,313.727600 323.082062,313.451965 323.080963,313.175110 
	C323.047272,304.628418 324.844971,302.673981 312.199005,303.199371 
	C311.866547,303.213196 311.533081,303.201813 311.200073,303.201782 
	C300.666779,303.200745 300.666779,303.200745 300.280518,314.034729 
	C291.180084,311.869690 283.596313,307.802490 278.196136,299.578796 
z"/>
<path fill="#F3B689" opacity="1.000000" stroke="none" 
	d="
M380.200989,258.418488 
	C373.153473,260.534302 366.546173,261.201477 359.968079,258.025604 
	C355.201599,255.724380 352.155365,252.622238 352.952545,246.803909 
	C353.675354,241.528275 357.978668,239.715591 361.813477,238.407928 
	C369.261749,235.867996 377.113464,236.021622 383.886444,240.339584 
	C386.592316,242.064636 389.419952,245.964188 389.486359,248.934387 
	C389.598572,253.953751 385.543915,257.023346 380.200989,258.418488 
z"/>
<path fill="#F3B689" opacity="1.000000" stroke="none" 
	d="
M246.879944,258.416290 
	C242.291245,256.437561 238.977188,253.621490 239.106705,248.734772 
	C239.229309,244.109634 242.605133,241.658279 246.529831,239.691177 
	C255.292282,235.299393 263.578186,237.309357 271.592529,241.453659 
	C274.594513,243.006027 277.257416,245.942215 275.820099,249.555588 
	C274.642731,252.515533 272.504272,255.877335 269.847260,257.313232 
	C262.720459,261.164703 254.940674,261.012726 246.879944,258.416290 
z"/>
<path fill="#953931" opacity="1.000000" stroke="none" 
	d="
M243.171509,193.593109 
	C243.838913,189.148605 241.469193,184.498795 245.353561,180.978226 
	C250.632919,176.193314 257.027679,173.923889 263.942627,173.323120 
	C268.903778,172.892105 273.934021,173.326965 278.921387,173.104919 
	C282.655670,172.938675 283.745117,174.991165 283.313263,178.038666 
	C282.919312,180.818542 284.133026,184.857468 278.892517,184.737686 
	C273.236298,184.608383 267.562653,184.601929 261.915131,184.896683 
	C254.875305,185.264069 248.385574,187.015976 244.490891,193.755173 
	C244.358185,193.984833 243.666504,193.891434 243.171509,193.593109 
z"/>
<path fill="#93372F" opacity="1.000000" stroke="none" 
	d="
M364.071655,173.820160 
	C367.676697,174.834137 371.005310,175.454910 374.003876,176.807373 
	C382.333008,180.564102 383.536926,183.159851 381.907196,193.183350 
	C376.576324,185.275269 368.702454,184.687836 360.641357,184.612045 
	C357.308380,184.580719 353.975311,184.556793 350.642334,184.523956 
	C345.250488,184.470856 342.618652,181.177979 344.233521,176.001694 
	C344.599426,174.828812 346.477020,173.376068 347.688568,173.348221 
	C353.001282,173.226028 358.324921,173.579773 364.071655,173.820160 
z"/>
<path fill="#542324" opacity="1.000000" stroke="none" 
	d="
M261.927643,225.038208 
	C257.960358,219.166824 257.255951,213.116425 260.606476,207.385864 
	C261.976379,205.042847 265.304382,202.650848 267.840363,202.539932 
	C270.097595,202.441208 273.225067,204.983612 274.670929,207.204956 
	C277.623871,211.741669 277.685059,216.919891 275.332611,221.949860 
	C272.467133,228.076904 267.757416,229.278091 261.927643,225.038208 
z"/>
<path fill="#522323" opacity="1.000000" stroke="none" 
	d="
M367.541077,222.392639 
	C364.694611,224.397385 361.603149,227.864822 359.510559,227.341095 
	C356.604919,226.613907 353.610535,223.303284 352.164429,220.357285 
	C349.881958,215.707443 350.516724,210.580261 353.574280,206.141769 
	C357.435791,200.536179 363.982025,200.835876 367.228912,206.772629 
	C369.945862,211.740494 370.169373,216.887207 367.541077,222.392639 
z"/>
<path fill="#E68E39" opacity="1.000000" stroke="none" 
	d="
M308.241577,251.284897 
	C307.224182,254.079056 306.375244,256.513031 305.291565,259.619873 
	C310.005432,260.167938 313.917419,260.483704 317.767456,261.154816 
	C318.927612,261.357025 319.915649,262.546600 320.982544,263.283844 
	C319.890320,264.079376 318.733337,265.629059 317.716919,265.541809 
	C312.951416,265.132507 308.129028,264.618408 303.545746,263.350739 
	C302.270721,262.998108 300.667084,259.647766 301.064392,258.170258 
	C302.652039,252.266678 304.843323,246.509033 307.118744,240.820374 
	C307.584930,239.654922 309.376251,239.019516 310.556763,238.139771 
	C310.803497,239.577774 311.504883,241.119995 311.204010,242.432434 
	C310.540985,245.324707 309.372314,248.101059 308.241577,251.284897 
z"/>
</svg>